<svg width="512" height="512" viewBox="0 0 512 512" fill="none" xmlns="http://www.w3.org/2000/svg">
<circle cx="256" cy="256" r="256" fill="#5160C5"/>
<path d="M199.2 147.3C193.2 147.3 188.1 145.4 183.9 141.6C179.9 137.8 177.9 132.9 177.9 126.9C177.9 120.5 179.9 115.5 183.9 111.9C188.1 108.3 193.2 106.5 199.2 106.5C205.4 106.5 210.6 108.3 214.8 111.9C219 115.5 221.1 120.5 221.1 126.9C221.1 132.9 219 137.8 214.8 141.6C210.6 145.4 205.4 147.3 199.2 147.3ZM180.6 407.1C171.8 407.1 164.7 405.5 159.3 402.3C154.1 399.3 149.9 395.3 146.7 390.3L154.2 370.2C160.6 377 169.2 380.3 180 380.1C188.4 380.1 194.6 377.6 198.6 372.6C202.8 367.8 204.9 359.2 204.9 346.8V215.7H165V179.7H219.6V357.9C219.6 375.5 216 388.1 208.8 395.7C201.8 403.3 192.4 407.1 180.6 407.1ZM309.195 348C293.195 348 279.995 345.3 269.595 339.9C259.195 334.5 251.795 327.7 247.395 319.5L255.195 299.4C260.995 305.8 268.695 310.9 278.295 314.7C287.895 318.5 298.395 320.4 309.795 320.4C324.395 320.4 334.795 318 340.995 313.2C347.395 308.4 350.595 302.4 350.595 295.2C350.595 290.8 349.395 287.1 346.995 284.1C344.795 281.1 340.495 278.7 334.095 276.9C327.695 274.9 318.395 273.3 306.195 272.1C292.995 270.7 282.295 268.5 274.095 265.5C266.095 262.5 260.295 258 256.695 252C253.095 246 251.295 238.1 251.295 228.3C251.295 211.9 256.895 199.2 268.095 190.2C279.295 181.2 294.095 176.7 312.495 176.7C326.295 176.7 337.895 179.4 347.295 184.8C356.695 190 363.895 196.9 368.895 205.5L360.195 228.6C354.595 222.6 347.595 218.2 339.195 215.4C330.995 212.4 321.495 210.9 310.695 210.9C300.695 210.9 292.695 212 286.695 214.2C280.695 216.2 276.395 219 273.795 222.6C271.195 226 269.895 229.9 269.895 234.3C269.895 238.5 270.995 242 273.195 244.8C275.595 247.6 279.895 249.9 286.095 251.7C292.495 253.3 301.595 254.7 313.395 255.9C327.995 257.3 339.395 259.7 347.595 263.1C355.795 266.5 361.595 271.1 364.995 276.9C368.395 282.5 370.095 289.9 370.095 299.1C370.095 315.1 364.695 327.3 353.895 335.7C343.295 343.9 328.395 348 309.195 348Z" fill="#DFF2FF"/>
</svg>
